#N canvas -178 131 1920 1016 16;
#X obj 239 138 osc~;
#X obj 295 213 *~;
#X obj 246 428 dac~;
#X floatatom 404 90 5 0 0 0 - - - 0;
#X text 184 49 Modulator freq;
#X text 381 38 Modulation depth;
#X floatatom 109 160 5 0 0 0 - - - 0;
#X obj 232 311 osc~;
#X obj 230 275 +~;
#X obj 268 382 *~ 0.1;
#X floatatom 232 98 5 0 0 0 - - - 0;
#X text 68 129 Carrier freq;
#X text 269 355 Amplification;
#X connect 0 0 1 0;
#X connect 1 0 8 1;
#X connect 3 0 1 1;
#X connect 6 0 8 0;
#X connect 7 0 9 0;
#X connect 8 0 7 0;
#X connect 9 0 2 0;
#X connect 9 0 2 1;
#X connect 10 0 0 0;
#X coords 0 0 0.5 0.5 0 0 0;
