#N canvas -32 109 1920 1016 16;
#X obj 356 252 osc~;
#X obj 408 83 osc~;
#X obj 396 156 *~;
#X floatatom 745 432 5 0 0 0 - - - 0;
#X obj 354 216 +~;
#X obj 420 377 dac~;
#X floatatom 345 102 5 0 0 0 - - - 0;
#X msg 579 25 devices;
#X obj 709 135 print;
#X msg 674 23 open 10;
#X msg 717 59 close;
#X obj 601 222 cyclone/zl group 100;
#X obj 633 261 list tosymbol;
#X obj 604 306 cyclone/fromsymbol;
#X obj 654 181 select 10 13;
#X obj 705 360 unpack f f;
#X floatatom 577 384 5 0 0 0 - - - 0;
#X obj 327 158 mtof;
#X text 17 83 Modulator freq;
#X text 528 406 Modulation depth;
#X floatatom 267 101 5 0 0 0 - - - 0;
#X obj 261 158 mtof;
#X obj 305 254 osc~;
#X obj 303 218 +~;
#X floatatom 198 100 5 0 0 0 - - - 0;
#X obj 201 157 mtof;
#X obj 249 256 osc~;
#X obj 247 220 +~;
#X obj 125 294 + 0;
#X obj 169 293 + 2;
#X obj 212 293 + 4;
#X obj 639 93 comport 10 115200;
#X floatatom 56 111 5 0 0 0 - - - 0;
#X obj 412 328 *~ 0.1;
#X obj 524 183 *~ 3;
#X obj 219 38 /~ 4 +;
#X text 706 456 Carrier freq (MIDI);
#X text 214 12 Divisor;
#X text 495 157 Multiplier;
#X text 238 448 Transpose;
#X text 413 299 Amplification;
#X obj 268 422 + 0;
#X connect 0 0 33 0;
#X connect 1 0 2 0;
#X connect 2 0 4 1;
#X connect 2 0 23 1;
#X connect 2 0 27 1;
#X connect 3 0 41 0;
#X connect 4 0 0 0;
#X connect 6 0 17 0;
#X connect 7 0 31 0;
#X connect 9 0 31 0;
#X connect 10 0 31 0;
#X connect 11 0 12 0;
#X connect 12 0 13 0;
#X connect 13 0 15 0;
#X connect 14 0 11 0;
#X connect 14 2 11 0;
#X connect 15 0 3 0;
#X connect 15 1 16 0;
#X connect 16 0 34 0;
#X connect 17 0 4 0;
#X connect 20 0 21 0;
#X connect 21 0 23 0;
#X connect 22 0 33 0;
#X connect 23 0 22 0;
#X connect 24 0 25 0;
#X connect 25 0 27 0;
#X connect 25 0 32 0;
#X connect 26 0 33 0;
#X connect 27 0 26 0;
#X connect 28 0 24 0;
#X connect 29 0 20 0;
#X connect 30 0 6 0;
#X connect 31 0 8 0;
#X connect 31 0 14 0;
#X connect 32 0 35 0;
#X connect 33 0 5 0;
#X connect 33 0 5 1;
#X connect 34 0 2 1;
#X connect 35 0 1 0;
#X connect 41 0 28 0;
#X connect 41 0 29 0;
#X connect 41 0 30 0;
#X coords 0 0 0.5 0.5 0 0 0;
