#N canvas 57 -12 1920 1016 16;
#X obj 489 330 osc~;
#X obj 540 193 osc~;
#X obj 529 234 *~;
#X floatatom 89 55 5 0 0 0 - - - 0;
#X obj 487 294 +~;
#X obj 507 453 dac~;
#X floatatom 468 193 5 0 0 0 - - - 0;
#X obj 460 236 mtof;
#X text 389 40 Modulator freq;
#X floatatom 374 193 5 0 0 0 - - - 0;
#X obj 394 236 mtof;
#X obj 438 332 osc~;
#X obj 436 296 +~;
#X floatatom 248 198 5 0 0 0 - - - 0;
#X obj 334 235 mtof;
#X obj 382 334 osc~;
#X obj 380 298 +~;
#X obj 209 133 + 0;
#X obj 253 132 + 2;
#X obj 296 132 + 4;
#X floatatom 441 69 5 0 0 0 - - - 0;
#X obj 507 395 *~ 0.1;
#X obj 498 133 /~ 4 +;
#X floatatom 677 142 5 0 0 0 - - - 0;
#X text 621 112 Modulation depth;
#X obj 252 82 + 0;
#X text 303 207 Root;
#X text 226 56 Transpose;
#X text 21 25 Carrier freq (MIDI);
#X text 516 369 Amplification;
#X text 496 108 Divisor;
#X connect 0 0 21 0;
#X connect 1 0 2 0;
#X connect 2 0 16 1;
#X connect 2 0 4 1;
#X connect 2 0 12 1;
#X connect 3 0 25 0;
#X connect 4 0 0 0;
#X connect 6 0 7 0;
#X connect 7 0 4 0;
#X connect 9 0 10 0;
#X connect 10 0 12 0;
#X connect 11 0 21 0;
#X connect 12 0 11 0;
#X connect 13 0 14 0;
#X connect 14 0 16 0;
#X connect 14 0 20 0;
#X connect 15 0 21 0;
#X connect 16 0 15 0;
#X connect 17 0 13 0;
#X connect 18 0 9 0;
#X connect 19 0 6 0;
#X connect 20 0 22 0;
#X connect 21 0 5 0;
#X connect 21 0 5 1;
#X connect 22 0 1 0;
#X connect 23 0 2 1;
#X connect 25 0 17 0;
#X connect 25 0 18 0;
#X connect 25 0 19 0;
#X coords 0 0 0.5 0.5 0 0 0;
