#N canvas -54 4 1920 1016 16;
#X floatatom 397 422 5 0 0 0 - - - 0;
#X msg 300 67 devices;
#X obj 279 146 print;
#X msg 421 44 open 10;
#X msg 531 61 close;
#X obj 404 237 cyclone/zl group 100;
#X obj 386 278 list tosymbol;
#X obj 357 323 cyclone/fromsymbol;
#X obj 384 188 select 10 13;
#X obj 458 377 unpack f f;
#X floatatom 598 412 5 0 0 0 - - - 0;
#X obj 392 110 comport 10 115200;
#X text 387 445 Output1;
#X text 588 432 Output2;
#X text 434 133 num com \, baude rate;
#X text 451 20 num com;
#X connect 1 0 11 0;
#X connect 3 0 11 0;
#X connect 4 0 11 0;
#X connect 5 0 6 0;
#X connect 6 0 7 0;
#X connect 7 0 9 0;
#X connect 8 0 5 0;
#X connect 8 2 5 0;
#X connect 9 0 0 0;
#X connect 9 1 10 0;
#X connect 11 0 2 0;
#X connect 11 0 8 0;
#X coords 0 0 0.5 0.5 0 0 0;
